<svg xmlns="http://www.w3.org/2000/svg" width="20" height="20" viewBox="0 0 20 20">
    <defs>
        <clipPath id="fz0mrx9nda">
            <path data-name="패스 6" d="M1398.024 196.872h2.192a8.272 8.272 0 0 1-3.936 6.191 13.5 13.5 0 0 0 1.744-6.192m-5.154 0h3.413c-.214 3.736-1.776 6.459-3.415 7.193zm-3.658 5.3a11.835 11.835 0 0 1-1.493-5.3h3.412v7.195a4.617 4.617 0 0 1-1.917-1.893m-3.054-.331a8.2 8.2 0 0 1-2.373-4.972h2.192a13.5 13.5 0 0 0 1.748 6.2 8.319 8.319 0 0 1-1.566-1.232m-2.372-6.712a8.273 8.273 0 0 1 3.868-6.15l.068-.042-.064.108a13.589 13.589 0 0 0-1.68 6.084zm14.24 0a13.5 13.5 0 0 0-1.747-6.2l.129.08a8.319 8.319 0 0 1 1.437 1.152 8.2 8.2 0 0 1 2.373 4.972zm-10.307 0c.214-3.737 1.776-6.46 3.415-7.193v7.194zm5.153 0v-7.195a4.62 4.62 0 0 1 1.917 1.893l.061.1a11.947 11.947 0 0 1 1.432 5.2zm-1.04-9.126a10 10 0 0 0 .162 20h.168a10 10 0 0 0-.162-20z" transform="translate(-1382 -186)" style="fill:#fff"/>
        </clipPath>
    </defs>
    <g data-name="그룹 6">
        <g data-name="그룹 5" style="clip-path:url(#fz0mrx9nda)">
            <path data-name="사각형 6" transform="translate(-.219 -.217)" style="fill:#fff" d="M0 0h20.438v20.435H0z"/>
        </g>
    </g>
</svg>
