<svg xmlns="http://www.w3.org/2000/svg" width="11" height="11" viewBox="0 0 11 11">
    <defs>
        <clipPath id="la811q29xa">
            <path data-name="패스 6" d="M1390.813 191.979h1.205a4.55 4.55 0 0 1-2.165 3.4 7.425 7.425 0 0 0 .959-3.405m-2.835 0h1.877c-.118 2.055-.977 3.552-1.878 3.956zm-2.012 2.915a6.511 6.511 0 0 1-.821-2.916h1.877v3.957a2.539 2.539 0 0 1-1.055-1.041m-1.68-.182a4.51 4.51 0 0 1-1.305-2.735h1.205a7.426 7.426 0 0 0 .961 3.412 4.575 4.575 0 0 1-.861-.677m-1.3-3.691a4.551 4.551 0 0 1 2.127-3.382l.038-.023-.035.06a7.474 7.474 0 0 0-.924 3.346zm7.832 0a7.424 7.424 0 0 0-.961-3.412l.071.044a4.573 4.573 0 0 1 .79.633 4.51 4.51 0 0 1 1.305 2.735zm-5.669 0c.118-2.055.977-3.553 1.879-3.956v3.957zm2.834 0v-3.957a2.541 2.541 0 0 1 1.054 1.041l.034.057a6.571 6.571 0 0 1 .787 2.86zm-.569-5.021a5.5 5.5 0 0 0 .089 11h.093a5.5 5.5 0 0 0-.089-11z" transform="translate(-1382 -186)" style="fill:#555"/>
        </clipPath>
    </defs>
    <g data-name="그룹 33">
        <g data-name="그룹 5" style="clip-path:url(#la811q29xa)">
            <path data-name="사각형 6" transform="translate(-.12 -.12)" style="fill:#555" d="M0 0h11.241v11.239H0z"/>
        </g>
    </g>
</svg>
